<svg width="265" height="49" viewBox="0 0 265 49" fill="none" xmlns="http://www.w3.org/2000/svg">
<path d="M7.26693 48.3088C11.2803 48.3088 14.5339 45.0552 14.5339 41.0418C14.5339 37.0284 11.2803 33.7749 7.26693 33.7749C3.25352 33.7749 0 37.0284 0 41.0418C0 45.0552 3.25352 48.3088 7.26693 48.3088Z" fill="#F2F2F2"/>
<path d="M19.2191 0.5L12.239 14.2689L29.0677 48.0219H42.741L19.2191 0.5Z" fill="#F2F2F2"/>
<path d="M71.2351 30.0458C69.8008 31.4801 67.7928 32.4363 65.5936 32.4363C61.1952 32.4363 57.6574 28.8984 57.6574 24.5C57.6574 20.1016 61.1952 16.5637 65.5936 16.5637C67.7928 16.5637 69.8008 17.4243 71.2351 18.8586L83.2829 7.67131C78.9801 3.36853 73.1474 0.691235 66.5498 0.691235C53.5458 0.691235 42.9323 11.3048 42.9323 24.4044C42.9323 37.504 53.5458 48.0219 66.5498 48.0219C73.0518 48.0219 78.9801 45.3446 83.2829 41.0418L71.2351 30.0458Z" fill="#F2F2F2"/>
<path d="M106.04 0.691235H104.797V48.1175H106.04V0.691235Z" fill="#F2F2F2"/>
<path d="M135.203 4.03785H139.888L147.538 23.4482H142.853L141.227 19.0498H133.865L132.239 23.4482H127.554L135.203 4.03785ZM139.984 15.512L137.594 8.91434L135.203 15.512H139.984Z" fill="#F2F2F2"/>
<path d="M148.398 17.1374C148.398 13.2171 151.267 10.6355 154.327 10.6355C156.143 10.6355 157.482 11.3048 158.438 12.3566V0.691235H162.167V23.4482H158.438V21.9183C157.482 23.0657 156.048 23.6394 154.327 23.6394C151.267 23.6394 148.398 21.0578 148.398 17.1374ZM155.378 20.1016C157.004 20.1016 158.438 18.8586 158.438 17.1374C158.438 15.4163 157.004 14.1733 155.378 14.1733C153.753 14.1733 152.319 15.4163 152.319 17.1374C152.414 18.8586 153.753 20.1016 155.378 20.1016Z" fill="#F2F2F2"/>
<path d="M163.888 10.8267H168.191L171.633 18.9542L175.076 10.8267H179.379L173.355 23.4482H169.626L163.888 10.8267Z" fill="#F2F2F2"/>
<path d="M179.474 17.1374C179.474 13.2171 182.63 10.6355 186.263 10.6355C189.896 10.6355 193.052 13.3127 193.052 17.1374C193.052 21.0578 189.896 23.6394 186.263 23.6394C182.725 23.6394 179.474 21.0578 179.474 17.1374ZM186.263 20.1016C187.888 20.1016 189.323 18.8586 189.323 17.1374C189.323 15.4163 187.888 14.1733 186.263 14.1733C184.637 14.1733 183.203 15.4163 183.203 17.1374C183.299 18.8586 184.733 20.1016 186.263 20.1016Z" fill="#F2F2F2"/>
<path d="M195.347 26.6036L197.928 24.6912C198.215 24.9781 199.363 26.1255 201.371 26.1255C204.048 26.1255 204.717 24.0219 204.717 22.5876V21.8227C203.761 22.8745 202.327 23.4482 200.606 23.4482C197.546 23.4482 194.677 21.0578 194.677 17.1374C194.677 13.2171 197.546 10.6355 200.606 10.6355C202.422 10.6355 203.761 11.3048 204.717 12.3566V10.8267H208.446V22.5876C208.446 26.6992 205.578 29.4721 201.371 29.4721C198.502 29.3765 196.112 27.9422 195.347 26.6036ZM201.753 20.1016C203.379 20.1016 204.813 18.8586 204.813 17.1374C204.813 15.4163 203.379 14.1733 201.753 14.1733C200.128 14.1733 198.693 15.4163 198.693 17.1374C198.693 18.8586 200.128 20.1016 201.753 20.1016Z" fill="#F2F2F2"/>
<path d="M210.454 19.8147C210.454 16.1813 214.183 15.512 216.765 15.512H218.295C218.104 14.5558 217.434 13.8865 216 13.8865C214.47 13.8865 213.131 14.747 212.462 15.1295L211.124 12.5478C212.271 11.5916 214.088 10.5398 216.191 10.5398C219.92 10.5398 222.12 12.4522 222.12 16.1813V23.4482H218.39V22.3008C217.721 23.0657 216.669 23.6394 214.853 23.6394C212.271 23.6394 210.454 22.0139 210.454 19.8147ZM216 21.249C217.53 21.249 218.295 20.2928 218.39 19.4323V18.1892H217.243C215.331 18.1892 214.088 18.5717 214.088 19.7191C214.088 20.6753 214.948 21.249 216 21.249Z" fill="#F2F2F2"/>
<path d="M224.032 17.1374C224.032 13.2171 226.9 10.6355 229.96 10.6355C231.777 10.6355 233.116 11.3048 234.072 12.3566V0.691235H237.801V23.4482H234.072V21.9183C233.116 23.0657 231.681 23.6394 229.96 23.6394C226.996 23.6394 224.032 21.0578 224.032 17.1374ZM231.108 20.1016C232.733 20.1016 234.167 18.8586 234.167 17.1374C234.167 15.4163 232.733 14.1733 231.108 14.1733C229.482 14.1733 228.048 15.4163 228.048 17.1374C228.048 18.8586 229.482 20.1016 231.108 20.1016Z" fill="#F2F2F2"/>
<path d="M240.096 17.1374C240.096 13.2171 243.251 10.6355 246.884 10.6355C250.518 10.6355 253.673 13.3127 253.673 17.1374C253.673 21.0578 250.518 23.6394 246.884 23.6394C243.251 23.6394 240.096 21.0578 240.096 17.1374ZM246.884 20.1016C248.51 20.1016 249.944 18.8586 249.944 17.1374C249.944 15.4163 248.51 14.1733 246.884 14.1733C245.259 14.1733 243.825 15.4163 243.825 17.1374C243.825 18.8586 245.259 20.1016 246.884 20.1016Z" fill="#F2F2F2"/>
<path d="M254.438 21.0578L257.211 19.4323C257.402 19.7191 258.263 20.5797 259.888 20.5797C260.653 20.5797 261.323 20.2928 261.323 19.7191C261.323 19.0498 260.462 18.9542 258.932 18.4761C257.307 17.9024 255.203 17.2331 255.203 14.6514C255.203 12.261 257.116 10.6355 259.888 10.6355C261.801 10.6355 263.713 11.4004 264.669 12.261L262.661 14.4602C262.375 14.1733 261.323 13.6952 260.367 13.6952C259.697 13.6952 259.028 13.8865 259.028 14.4602C259.028 15.0339 259.793 15.2251 261.036 15.7032C262.566 16.1813 264.956 16.8506 264.956 19.4323C264.956 22.2052 262.757 23.6394 259.984 23.6394C257.498 23.6394 255.203 22.3964 254.438 21.0578Z" fill="#F2F2F2"/>
<path d="M128.892 42.4761C128.892 39.4163 130.9 37.5996 132.908 36.3566C132.335 35.496 131.57 34.3486 131.57 33.1056C131.57 30.4283 133.769 28.5159 136.446 28.5159C139.219 28.5159 141.227 30.237 141.227 32.8187C141.227 34.8267 139.697 36.3566 138.072 37.4084C139.124 38.6514 139.984 39.7032 140.749 40.5637C141.131 39.8944 141.514 39.2251 141.705 38.6514L144.765 39.7032C144.478 40.4681 143.809 41.8068 143.044 43.1454C144.191 44.3884 145.721 45.9183 147.825 48.2131H142.853C142.566 47.9263 141.131 46.492 140.845 46.2052C139.315 47.8307 137.594 48.5 135.299 48.5C131.857 48.3088 128.892 45.7271 128.892 42.4761ZM135.586 45.0578C137.116 45.0578 138.072 44.3884 138.645 43.6235C137.211 42.0936 135.777 40.3725 134.916 39.3207C133.578 39.99 132.622 40.9462 132.622 42.4761C132.622 43.9104 133.96 45.0578 135.586 45.0578ZM136.064 34.8267C136.733 34.5398 137.785 33.7749 137.785 32.8187C137.785 32.0538 137.307 31.2888 136.351 31.2888C135.394 31.2888 134.916 32.0538 134.916 32.9143C135.012 33.7749 135.777 34.6355 136.064 34.8267Z" fill="#F2F2F2"/>
<path d="M152.032 38.3645C152.032 32.8187 156.526 28.4203 162.072 28.4203C165.705 28.4203 168.956 30.3327 170.677 33.2968L167.044 35.4004C166.088 33.7749 164.175 32.6275 162.072 32.6275C158.916 32.6275 156.239 35.1135 156.239 38.3645C156.239 41.5199 158.821 44.1016 162.072 44.1016C164.175 44.1016 165.992 42.9542 167.044 41.3287L170.677 43.4323C168.956 46.3008 165.705 48.3088 162.072 48.3088C156.43 48.3088 152.032 43.9104 152.032 38.3645Z" fill="#F2F2F2"/>
<path d="M174.884 29.3765C176.032 29.3765 176.892 30.3327 176.892 31.3845C176.892 32.5319 175.936 33.3924 174.884 33.3924C173.833 33.3924 172.877 32.4363 172.877 31.3845C172.781 30.237 173.737 29.3765 174.884 29.3765ZM172.972 35.4004H176.701V48.0219H172.972V35.4004Z" fill="#F2F2F2"/>
<path d="M179.092 44.4841C179.092 40.8506 182.821 40.1813 185.402 40.1813H186.932C186.741 39.2251 186.072 38.5558 184.637 38.5558C183.108 38.5558 181.769 39.4163 181.1 39.7988L179.761 37.2171C180.908 36.261 182.725 35.2092 184.829 35.2092C188.558 35.2092 190.757 37.1215 190.757 40.8506V48.1175H187.028V46.9701C186.359 47.7351 185.307 48.3088 183.49 48.3088C180.908 48.3088 179.092 46.6833 179.092 44.4841ZM184.637 45.8227C186.167 45.8227 186.932 44.8665 187.028 44.006V42.7629H185.88C183.968 42.7629 182.725 43.1454 182.725 44.2928C182.725 45.249 183.586 45.8227 184.637 45.8227Z" fill="#F2F2F2"/>
<path d="M193.817 45.8227C193.817 44.4841 194.964 43.4323 196.207 43.4323C197.546 43.4323 198.693 44.4841 198.693 45.8227C198.693 47.1614 197.546 48.2131 196.207 48.2131C194.964 48.3088 193.817 47.1614 193.817 45.8227Z" fill="#F2F2F2"/>
</svg>
